<svg id="katman_1" data-name="katman 1" xmlns="http://www.w3.org/2000/svg" viewBox="0 0 1660.49 1101.28"><defs><style>.cls-1{fill:#fff;}.cls-2{fill:#e5362e;}</style></defs><path class="cls-1" d="M439.11,1083.36h-328V279.93h328Zm-310-17.87h292.1V297.85H129.09Z" transform="translate(-18.85 -7.52)"/><path class="cls-1" d="M1059.25,984.53h-328V279.93h328ZM749.17,966.66h292.16V297.85H749.17Z" transform="translate(-18.85 -7.52)"/><path class="cls-1" d="M1369.32,786.87h-328V279.93h328ZM1059.25,769H1351.4V297.85H1059.25Z" transform="translate(-18.85 -7.52)"/><path class="cls-1" d="M1679.34,786.87H1351.41V279.93h327.93Zm-310-17.92h292.1V297.85h-292.1Z" transform="translate(-18.85 -7.52)"/><path class="cls-1" d="M343,371.68s-48.33-5.47-68.19-5.47c-25.38,0-37.37,9.24-37.37,24.58,0,14.72,9.24,19.87,48.33,32.2,50.33,16.09,65.74,30.11,65.74,68.75,0,50.67-34.58,74.24-80.52,74.24-31.84,0-77.71-10.56-77.71-10.56l4.78-36.63S244,525,268.32,525c25.34,0,36.29-12,36.29-30.14,0-14.32-8.21-20.83-41.82-30.41-52.39-15.06-72.31-32.87-72.31-70.13,0-48.27,32.25-69.16,79.55-69.16,31.16,0,76.75,9.25,76.75,9.25Z" transform="translate(-18.85 -7.52)"/><path class="cls-1" d="M895.26,522.9c27.73,0,41.43-13.35,41.43-40.75v-155H984v154c0,58.21-30.49,82.79-88.74,82.79s-88.73-24.58-88.73-82.79V327.18h47.24v155c0,27.74,13.69,40.75,41.49,40.75" transform="translate(-18.85 -7.52)"/><path class="cls-1" d="M1116.54,561.93V329.23H1195c81.19,0,99.06,34.58,99.06,111.89,0,79.38-15.46,120.81-99.06,120.81ZM1195,370.31h-31.16V520.85H1195c45.93,0,50.39-28.07,50.39-79.73,0-51-4.46-70.81-50.39-70.81" transform="translate(-18.85 -7.52)"/><polygon class="cls-1" points="1520.52 554.41 1473.22 554.41 1473.22 460.31 1401.26 321.71 1453.7 321.71 1496.5 414.44 1539.35 321.71 1591.79 321.71 1520.52 460.31 1520.52 554.41"/><polygon class="cls-1" points="52.49 106.48 72.35 106.48 124.51 155.54 177.74 106.81 197.6 106.81 51.06 240.92 30.87 240.92 88.5 188.41 0 107.16 19.46 106.81 97.34 178.37 114.24 164.22 52.49 106.48"/><polygon class="cls-1" points="320.28 240.91 302.26 240.91 253.53 196.12 204.56 240.91 184.76 240.91 331.3 106.47 351.49 106.47 291.18 162.23 376.95 240.91 358.18 240.91 281.31 171.13 264.42 186.19 320.28 240.91"/><polygon class="cls-1" points="82.74 240.91 101.45 240.91 247.64 107.05 227.1 107.05 82.74 240.91"/><polygon class="cls-1" points="135.98 240.91 154.69 240.91 300.88 107.05 280.34 107.05 135.98 240.91"/><path class="cls-1" d="M544.73,1054.94a30.63,30.63,0,0,1-5.66,10.62,28.07,28.07,0,0,1-9.41,7.13,31.45,31.45,0,0,1-12.9,2.5H497.82V1008h18.94a30.47,30.47,0,0,1,12.67,2.52,27.48,27.48,0,0,1,9.42,7,28.92,28.92,0,0,1,5.88,10.61,47.76,47.76,0,0,1,0,26.88m-28,27a41,41,0,0,0,15.58-2.86,32.88,32.88,0,0,0,11.82-8.17,37.16,37.16,0,0,0,7.59-12.71,50.93,50.93,0,0,0,2.68-16.72,54.13,54.13,0,0,0-2.34-15.64,37.49,37.49,0,0,0-7.2-12.72,34.07,34.07,0,0,0-11.69-8.62,39.68,39.68,0,0,0-16.44-3.25H490v80.69Z" transform="translate(-18.85 -7.52)"/><path class="cls-1" d="M564.76,1081.94h7.47v-60.49h-7.47Zm0-68.31h7.47v-12.38h-7.47Z" transform="translate(-18.85 -7.52)"/><path class="cls-1" d="M621,1077.31a14.86,14.86,0,0,0,6.22-12.5,12.31,12.31,0,0,0-1.54-6.21,13.56,13.56,0,0,0-4.23-4.28,28.85,28.85,0,0,0-7-3.08c-2.85-.81-6.1-1.78-9.75-2.63-2.62-.63-4.91-1.15-6.62-1.66a18.13,18.13,0,0,1-4.57-1.88,5.34,5.34,0,0,1-2.45-2.46,7.11,7.11,0,0,1-.79-3.76,9.87,9.87,0,0,1,1.08-4.85,9.37,9.37,0,0,1,3.08-3.26,15.23,15.23,0,0,1,4.4-2,25,25,0,0,1,5.64-.64,28.38,28.38,0,0,1,9.52,1.72,22.29,22.29,0,0,1,7.94,5l3.54-4.28a22.7,22.7,0,0,0-8.78-6.62,27.78,27.78,0,0,0-12-2.52,30.33,30.33,0,0,0-8.45,1.15,19.86,19.86,0,0,0-6.85,3.26,16,16,0,0,0-6.39,13,11.21,11.21,0,0,0,1.21,5.7,10.11,10.11,0,0,0,3.59,3.78,26.71,26.71,0,0,0,5.93,2.85,89,89,0,0,0,8.67,2.28c2.8.74,5.43,1.37,7.59,2a26.49,26.49,0,0,1,5.54,2.22,11,11,0,0,1,3.25,2.67,8,8,0,0,1,1.09,4,9,9,0,0,1-4.29,8c-2.79,1.88-6.44,2.85-11,2.85a30.62,30.62,0,0,1-10.85-1.88,34.23,34.23,0,0,1-9.93-5.87l-3.36,4.9a28.74,28.74,0,0,0,11,7.13,34.82,34.82,0,0,0,13.24,2.47c6.79,0,12.21-1.5,16.32-4.63" transform="translate(-18.85 -7.52)"/><path class="cls-1" d="M639.11,1063.21a28.76,28.76,0,0,0,6.11,9.71,26.46,26.46,0,0,0,9.17,6.55,25.86,25.86,0,0,0,11.6,2.47,27.79,27.79,0,0,0,7.86-1.1,25.61,25.61,0,0,0,7.08-2.91,23.22,23.22,0,0,0,5.43-4.62,21,21,0,0,0,3.53-5.77l-7.36-2.1a9.63,9.63,0,0,1-2.4,3.77,15.31,15.31,0,0,1-4,3,19.53,19.53,0,0,1-5,2.23,20.55,20.55,0,0,1-5.53.73,17.6,17.6,0,0,1-8.1-1.76,22,22,0,0,1-6.73-5.08,20.94,20.94,0,0,1-4.51-7.53,26.79,26.79,0,0,1-1.66-9.36,25.63,25.63,0,0,1,1.54-9.25,21.92,21.92,0,0,1,4.4-7.35,22.64,22.64,0,0,1,6.73-4.91,18.64,18.64,0,0,1,8.22-1.83,18.3,18.3,0,0,1,9.64,2.74,20.19,20.19,0,0,1,7,7.36l7.25-2.39a23.84,23.84,0,0,0-9.25-10.5,26.71,26.71,0,0,0-14.26-3.89,28.7,28.7,0,0,0-20.88,8.79,29,29,0,0,0-6,9.59,32.62,32.62,0,0,0-2.07,11.63,30.22,30.22,0,0,0,2.18,11.76" transform="translate(-18.85 -7.52)"/><path class="cls-1" d="M708.67,1042.61a23.86,23.86,0,0,1,4.51-7.53,22.71,22.71,0,0,1,6.61-5,17.21,17.21,0,0,1,8.11-1.94,17.87,17.87,0,0,1,8.15,1.94,22.36,22.36,0,0,1,6.68,5,23.36,23.36,0,0,1,4.57,7.48,26,26,0,0,1,1.7,9.13,25.65,25.65,0,0,1-1.7,9.24,22.86,22.86,0,0,1-4.57,7.42,22.56,22.56,0,0,1-6.68,5.08,18.48,18.48,0,0,1-8.15,1.76,17.82,17.82,0,0,1-8.11-1.76,20.61,20.61,0,0,1-6.73-5,21.84,21.84,0,0,1-4.39-7.41,24.81,24.81,0,0,1-1.66-9.19,26.44,26.44,0,0,1,1.66-9.25m30.81,36.86a28.83,28.83,0,0,0,9.13-6.49,30.65,30.65,0,0,0,5.82-9.66,31,31,0,0,0,2.16-11.52,32.13,32.13,0,0,0-2.16-11.69,33.65,33.65,0,0,0-5.93-9.53,31,31,0,0,0-9.13-6.62,25.9,25.9,0,0,0-11.47-2.52,25.16,25.16,0,0,0-11.36,2.52,30.09,30.09,0,0,0-9.08,6.62,29.69,29.69,0,0,0-6,9.53,31.11,31.11,0,0,0-2.16,11.69,32.19,32.19,0,0,0,2.05,11.52,29,29,0,0,0,6,9.66,27.78,27.78,0,0,0,9.06,6.49,25.35,25.35,0,0,0,11.48,2.47,26.31,26.31,0,0,0,11.58-2.47" transform="translate(-18.85 -7.52)"/><polygon class="cls-1" points="778.89 1074.42 802.4 1013.92 795.15 1013.92 775.13 1067.17 755.33 1013.92 747.5 1013.92 771.13 1074.42 778.89 1074.42"/><path class="cls-1" d="M838.77,1048.32a25,25,0,0,1,2-8.1,18.4,18.4,0,0,1,4.51-6.4,23.57,23.57,0,0,1,6.61-4.21,23.32,23.32,0,0,1,8-1.49,22.72,22.72,0,0,1,7.94,1.49,23.57,23.57,0,0,1,6.61,4.21,24.48,24.48,0,0,1,4.62,6.29,22.91,22.91,0,0,1,2.17,8.21ZM868,1080.84a23.09,23.09,0,0,0,7-3,24.65,24.65,0,0,0,5.65-4.63,21.48,21.48,0,0,0,3.87-6l-6.61-1.54a11.71,11.71,0,0,1-2.91,3.88,20.31,20.31,0,0,1-4.23,3,18.43,18.43,0,0,1-5.07,1.89,20.71,20.71,0,0,1-5.53.73,18.79,18.79,0,0,1-7.89-1.48,22.14,22.14,0,0,1-6.62-4.16,20.8,20.8,0,0,1-4.67-6.45,19.72,19.72,0,0,1-2.17-8H888.3a7.7,7.7,0,0,0,.05-1v-1.76a32.75,32.75,0,0,0-8-21.63,28,28,0,0,0-9-6.73,25.8,25.8,0,0,0-11.58-2.52,27.31,27.31,0,0,0-11.52,2.4,30,30,0,0,0-9.19,6.5,29.17,29.17,0,0,0-5.94,9.59,28.81,28.81,0,0,0-2.17,11.53,29.52,29.52,0,0,0,2.17,11.75,29.4,29.4,0,0,0,15.13,16.26,25.72,25.72,0,0,0,11.58,2.47,29.27,29.27,0,0,0,8.15-1.1" transform="translate(-18.85 -7.52)"/><path class="cls-1" d="M926.18,1021.22a3,3,0,0,1-1.43.22,20,20,0,0,0-11.69,3.89,27.52,27.52,0,0,0-8.68,10.67v-14.56h-7v60.5h7.47v-37.61a22.81,22.81,0,0,1,8-11.87,21.31,21.31,0,0,1,13.35-4.34Z" transform="translate(-18.85 -7.52)"/><path class="cls-1" d="M970,1108.58a21.39,21.39,0,0,0,2.39.22h2.17a11.35,11.35,0,0,0,7.7-2.5,15.74,15.74,0,0,0,4-6l30-78.86H1009l-19.8,54.28-21.46-54.28H960l25.22,61.75c-1.71,4.22-3.14,7.47-4,10.09a39.09,39.09,0,0,1-2.51,5.65,8.3,8.3,0,0,1-2.28,2.63,7.68,7.68,0,0,1-3.14.52h-1.6c-.57,0-1.08-.12-1.65-.17Z" transform="translate(-18.85 -7.52)"/><path class="cls-1" d="M1034.32,1042.61a25.38,25.38,0,0,1,4.56-7.53,23,23,0,0,1,6.62-5,17,17,0,0,1,8.11-1.94,17.63,17.63,0,0,1,8.09,1.94,21.88,21.88,0,0,1,6.74,5,23.34,23.34,0,0,1,4.56,7.48,25.78,25.78,0,0,1,1.71,9.13,25.44,25.44,0,0,1-1.71,9.24,22.84,22.84,0,0,1-4.56,7.42,22.07,22.07,0,0,1-6.74,5.08,18.22,18.22,0,0,1-8.09,1.76,17.62,17.62,0,0,1-8.11-1.76,20.61,20.61,0,0,1-6.73-5,23,23,0,0,1-4.45-7.41,24.81,24.81,0,0,1-1.6-9.19,26.39,26.39,0,0,1,1.6-9.25m30.87,36.86a28.72,28.72,0,0,0,9.13-6.49,31.61,31.61,0,0,0,5.82-9.66,31,31,0,0,0,2.16-11.52,32.13,32.13,0,0,0-2.16-11.69,35,35,0,0,0-5.93-9.53,31.12,31.12,0,0,0-9.14-6.62,25.77,25.77,0,0,0-11.46-2.52,25.24,25.24,0,0,0-11.37,2.52,30.17,30.17,0,0,0-9.07,6.62,29.52,29.52,0,0,0-6,9.53,31.11,31.11,0,0,0-2.16,11.69,32.4,32.4,0,0,0,2,11.52,29.19,29.19,0,0,0,6,9.66,27.82,27.82,0,0,0,9.07,6.49,25.29,25.29,0,0,0,11.48,2.47,26.28,26.28,0,0,0,11.58-2.47" transform="translate(-18.85 -7.52)"/><path class="cls-1" d="M1130.18,1078.17a27.9,27.9,0,0,0,10.27-10.62v7.25a8,8,0,0,0,1.6,5.26,5.6,5.6,0,0,0,4.33,1.87h1.21a4.13,4.13,0,0,0,2.16-1v-5.65c-1.82,0-2.69-1.09-2.69-3.26v-50.62h-7.47v37.49a30.86,30.86,0,0,1-3.59,6.8,24.71,24.71,0,0,1-4.85,5.19,20.52,20.52,0,0,1-6,3.25,18.31,18.31,0,0,1-6.45,1.15c-9,0-13.46-6.74-13.46-20.27v-33.61h-7.48v34.88c0,8.5,1.54,14.89,4.57,19.22s7.81,6.39,14.08,6.39a27.39,27.39,0,0,0,13.76-3.76" transform="translate(-18.85 -7.52)"/><path class="cls-1" d="M1196.43,1021.22a3,3,0,0,1-1.43.22,20,20,0,0,0-11.69,3.89,27.13,27.13,0,0,0-8.62,10.67v-14.56h-7.08v60.5h7.47v-37.61a22.91,22.91,0,0,1,8.05-11.87,21,21,0,0,1,13.3-4.34Z" transform="translate(-18.85 -7.52)"/><path class="cls-1" d="M1258.06,1074.17a23.65,23.65,0,0,1-5.53-3.08,21,21,0,0,1-4.69-4.62,25.21,25.21,0,0,1-3.43-5.77v-17.62a13.44,13.44,0,0,1,2.34-5.71,21.64,21.64,0,0,1,4.68-4.68,23.2,23.2,0,0,1,5.94-3.26,16,16,0,0,1,6.1-1.31,18.37,18.37,0,0,1,8.44,2,22.23,22.23,0,0,1,6.68,5.12,24.74,24.74,0,0,1,4.58,7.54,25,25,0,0,1,1.71,9,28.93,28.93,0,0,1-1.37,8.67,24.18,24.18,0,0,1-4.23,7.59,20.94,20.94,0,0,1-6.5,5.24,17.87,17.87,0,0,1-8.45,2,19.17,19.17,0,0,1-6.27-1m18.94,5.3a25.47,25.47,0,0,0,8.33-6.49,31.66,31.66,0,0,0,5.31-9.66,33.68,33.68,0,0,0,1.94-11.63,32.51,32.51,0,0,0-7.82-21,30,30,0,0,0-8.61-6.73,23.91,23.91,0,0,0-11-2.52,22.91,22.91,0,0,0-12.33,3.54,30,30,0,0,0-9.23,9.37v-12.91h-6.69v87.36h7.47v-40a29.67,29.67,0,0,0,9.08,9.42,22,22,0,0,0,12.89,3.72,22.44,22.44,0,0,0,10.62-2.47" transform="translate(-18.85 -7.52)"/><path class="cls-1" d="M1311.52,1042.61a25.38,25.38,0,0,1,4.56-7.53,22.93,22.93,0,0,1,6.63-5,17,17,0,0,1,8.1-1.94,17.7,17.7,0,0,1,8.1,1.94,21.84,21.84,0,0,1,6.73,5,23.19,23.19,0,0,1,4.57,7.48,26,26,0,0,1,1.71,9.13,25.65,25.65,0,0,1-1.71,9.24,22.7,22.7,0,0,1-4.57,7.42,22,22,0,0,1-6.73,5.08,18.3,18.3,0,0,1-8.1,1.76,17.6,17.6,0,0,1-8.1-1.76,20.54,20.54,0,0,1-6.74-5,23.17,23.17,0,0,1-4.45-7.41,25,25,0,0,1-1.6-9.19,26.62,26.62,0,0,1,1.6-9.25m30.87,36.86a27.61,27.61,0,0,0,9.07-6.49,30.43,30.43,0,0,0,5.88-9.66,32.26,32.26,0,0,0,2.17-11.52,30.83,30.83,0,0,0-8.16-21.22,29.85,29.85,0,0,0-9.08-6.62,26,26,0,0,0-11.46-2.52,25,25,0,0,0-11.36,2.52,31,31,0,0,0-9.13,6.62,30.41,30.41,0,0,0-5.93,9.53,29.8,29.8,0,0,0-2.16,11.69,30.93,30.93,0,0,0,2,11.52,29.88,29.88,0,0,0,5.94,9.66,28.5,28.5,0,0,0,9.13,6.49,25.28,25.28,0,0,0,11.47,2.47,26.43,26.43,0,0,0,11.58-2.47" transform="translate(-18.85 -7.52)"/><path class="cls-1" d="M1401.17,1072.57a16.62,16.62,0,0,1-3.14,1.59,13.75,13.75,0,0,1-5.6,1,7.18,7.18,0,0,1-4.67-1.6,5.91,5.91,0,0,1-2.29-4.79v-40.7h13.35v-6.67h-13.35v-20.19h-7.59v20.19H1370v6.67h7.87v42.47a12.43,12.43,0,0,0,1,5,10.75,10.75,0,0,0,2.74,3.6,9.59,9.59,0,0,0,3.76,2.11,18.3,18.3,0,0,0,4.79.64,18.5,18.5,0,0,0,4.34-.47,16.8,16.8,0,0,0,3.77-.91c1.08-.4,2.16-.75,3-1.14a18.1,18.1,0,0,0,1.93-.85Z" transform="translate(-18.85 -7.52)"/><path class="cls-1" d="M1414,1048.32a24.43,24.43,0,0,1,1.94-8.1,18.52,18.52,0,0,1,4.56-6.4,23.48,23.48,0,0,1,6.62-4.21,23.17,23.17,0,0,1,8-1.49,22.58,22.58,0,0,1,7.93,1.49,25,25,0,0,1,6.62,4.21,26,26,0,0,1,4.63,6.29,23.11,23.11,0,0,1,2.16,8.21Zm29.27,32.52a23,23,0,0,0,7-3,24.29,24.29,0,0,0,5.66-4.63,22,22,0,0,0,3.88-6l-6.63-1.54a11.44,11.44,0,0,1-2.91,3.88,21.35,21.35,0,0,1-4.22,3,18.55,18.55,0,0,1-5.07,1.89,20.94,20.94,0,0,1-5.54.73,19.12,19.12,0,0,1-7.93-1.48,22.23,22.23,0,0,1-6.56-4.16,20.51,20.51,0,0,1-4.68-6.45,19.88,19.88,0,0,1-2.17-8h49.36a3.59,3.59,0,0,0,.11-1v-1.76a33.45,33.45,0,0,0-8-21.63,27.53,27.53,0,0,0-9-6.73,25.65,25.65,0,0,0-11.58-2.52,27.33,27.33,0,0,0-11.48,2.4,29.63,29.63,0,0,0-9.18,6.5,28.19,28.19,0,0,0-5.93,9.59,28.64,28.64,0,0,0-2.17,11.53,29.35,29.35,0,0,0,2.17,11.75,29.36,29.36,0,0,0,15.11,16.26,25.79,25.79,0,0,0,11.59,2.47,29.34,29.34,0,0,0,8.16-1.1" transform="translate(-18.85 -7.52)"/><path class="cls-1" d="M1521.05,1047.19a66,66,0,0,0-.85-10.62,28.69,28.69,0,0,0-2.91-8.11,14.35,14.35,0,0,0-5.31-5.13,16,16,0,0,0-8-1.89,28.33,28.33,0,0,0-24.6,14.5v-14.5h-6.79v60.49H1480v-36.35a19.8,19.8,0,0,1,3.25-7,29,29,0,0,1,5.08-5.53,23.18,23.18,0,0,1,6-3.6,20,20,0,0,1,6.74-1.38,10.52,10.52,0,0,1,9.3,4.86c2,3.25,3.14,8.39,3.14,15.52v33.44h7.47Z" transform="translate(-18.85 -7.52)"/><path class="cls-1" d="M1560.59,1072.57a21.69,21.69,0,0,1-3.13,1.59,14.2,14.2,0,0,1-5.65,1,7.18,7.18,0,0,1-4.68-1.6,6,6,0,0,1-2.28-4.79v-40.7h13.35v-6.67h-13.35v-20.19h-7.54v20.19h-7.93v6.67h7.93v42.47a11.64,11.64,0,0,0,1,5,10.14,10.14,0,0,0,2.69,3.6,9.49,9.49,0,0,0,3.82,2.11,18.9,18.9,0,0,0,9.07.17,15.91,15.91,0,0,0,3.77-.91c1.08-.4,2.17-.75,3-1.14a20.87,20.87,0,0,0,2-.85Z" transform="translate(-18.85 -7.52)"/><path class="cls-1" d="M1569.55,1081.94H1577v-60.49h-7.48Zm0-68.31H1577v-12.38h-7.48Z" transform="translate(-18.85 -7.52)"/><path class="cls-1" d="M1601.17,1074.17a12.89,12.89,0,0,1-4.34-3,12,12,0,0,1-2.91-4.39,13.33,13.33,0,0,1-1.08-5.35,11.26,11.26,0,0,1,5-9.48c3.37-2.39,7.71-3.66,13-3.66a35.78,35.78,0,0,1,8.22.92,55.47,55.47,0,0,1,7.94,2.62V1062a6.56,6.56,0,0,1-.58,2.35,6.74,6.74,0,0,1-1.48,2.27,18.85,18.85,0,0,1-7.48,6.34,25.3,25.3,0,0,1-10.85,2.27,14.57,14.57,0,0,1-5.41-1m16.66,5.13a26.38,26.38,0,0,0,10.1-7.69l.23,4.73a5.18,5.18,0,0,0,1.71,4.1,6,6,0,0,0,4.45,1.5,6.38,6.38,0,0,0,2.91-1.15v-5.6c-1.94,0-2.79-1-2.79-3.24v-26.88q0-11-6.17-17.35c-4.17-4.22-9.87-6.28-17.12-6.28-7.07,0-14.32,2.69-21.68,8.17l2.62,3.59a50.68,50.68,0,0,1,9.42-3.71,36.13,36.13,0,0,1,9.08-1.37c5.07,0,9.12,1.31,12,3.71a12.28,12.28,0,0,1,4.35,9.76v4.22a36.16,36.16,0,0,0-8.17-3.08,38.48,38.48,0,0,0-9-1.14,31.1,31.1,0,0,0-9.76,1.48,25.54,25.54,0,0,0-7.7,4.11,18.72,18.72,0,0,0-5,6.28,18,18,0,0,0-1.72,8,22.16,22.16,0,0,0,1.38,8.09,18.59,18.59,0,0,0,4.05,6.5,17.38,17.38,0,0,0,6.16,4.28,17.1,17.1,0,0,0,7.58,1.61,32.48,32.48,0,0,0,13-2.64" transform="translate(-18.85 -7.52)"/><path class="cls-1" d="M1653,1070.91c0,3.55,1,6.29,2.91,8.17s4.79,2.86,8.26,2.86a34.17,34.17,0,0,0,5.31-.46,22.75,22.75,0,0,0,5.19-1.32l-1.42-6.22a14.07,14.07,0,0,1-3.14.92,14.63,14.63,0,0,1-2.79.33c-2.17,0-3.94-.51-5-1.75a6.84,6.84,0,0,1-1.71-5.09v-67.11H1653Z" transform="translate(-18.85 -7.52)"/><rect class="cls-2" x="422.26" width="285.31" height="861.63"/><polygon class="cls-1" points="480.69 321.71 651.98 321.71 651.98 363.48 590.31 363.48 590.31 554.41 543.05 554.41 543.05 363.48 480.69 363.48 480.69 321.71"/><path class="cls-1" d="M516.82,81.87H544.1v27.67H516.82Zm0,40.68H544.1V224.13H516.82Z" transform="translate(-18.85 -7.52)"/><path class="cls-1" d="M565.27,224.12V122.55h27.05v5.65s13.8-8.1,25.44-8.1c28.48,0,35.84,17.85,35.84,49v55.06H626.33V169.91c0-15.46-2.06-25.45-15.3-25.45a55.6,55.6,0,0,0-18.49,3.66v76Z" transform="translate(-18.85 -7.52)"/><path class="cls-1" d="M618.51,619.56a33.3,33.3,0,1,1-33.33-33.27,33.27,33.27,0,0,1,33.33,33.27" transform="translate(-18.85 -7.52)"/><path class="cls-1" d="M828,139.24H791.8v-25.6H895.4v25.6H858.6v109.2H828Z" transform="translate(-18.85 -7.52)"/><path class="cls-1" d="M942,113.64v77.6c0,23.2,8.8,35,24.4,35,16,0,24.8-11.2,24.8-35v-77.6h30.4v75.6c0,41.6-21,61.4-56.2,61.4-34,0-54-18.8-54-61.8v-75.2Zm5-7.8a13.7,13.7,0,1,1,.4-27.4c7.4,0,13,6,13,13.8a13.28,13.28,0,0,1-13.2,13.6Zm41.6,0a13.7,13.7,0,1,1,.2-27.4c7.6,0,13.4,6,13.4,13.8a13.44,13.44,0,0,1-13.4,13.6Z" transform="translate(-18.85 -7.52)"/><path class="cls-1" d="M1048,115.44a267.85,267.85,0,0,1,40.6-2.8c20,0,34,3,43.59,10.6,8,6.4,12.4,15.8,12.4,28.2,0,17.2-12.2,29-23.8,33.2v.6c9.4,3.8,14.6,12.8,18,25.2,4.2,15.2,8.4,32.8,11,38h-31.2c-2.2-4-5.39-14.8-9.39-31.4-3.61-16.8-9.4-21.4-21.8-21.6h-9.2v53H1048Zm30.2,58h12c15.2,0,24.19-7.6,24.19-19.4,0-12.4-8.4-18.6-22.39-18.8a76.1,76.1,0,0,0-13.8,1Z" transform="translate(-18.85 -7.52)"/><path class="cls-1" d="M1166.59,113.64h30.2v59.6h.6c3-5.2,6.2-10,9.2-14.8l30.6-44.8h37.4L1230,171l47,77.4h-35.6l-33-58.2-11.6,14.2v44h-30.2Z" transform="translate(-18.85 -7.52)"/><path class="cls-1" d="M1320,113.64v134.8h-30.6V113.64Zm-15.2-7.8a13.79,13.79,0,0,1-13.8-13.6,13.63,13.63,0,0,1,14-13.8c7.6,0,13.4,6,13.4,13.8a13.57,13.57,0,0,1-13.4,13.6Z" transform="translate(-18.85 -7.52)"/><path class="cls-1" d="M1374,248.44v-55.2l-42.6-79.6h34.8L1380,146c4.2,9.8,7,17,10.4,25.8h.4c3-8.4,6.2-16.2,10.2-25.8l13.6-32.4h34.2l-44.4,78.6v56.2Z" transform="translate(-18.85 -7.52)"/><path class="cls-1" d="M1540,191.44h-49.6v32h55.4v25h-86V113.64H1543v25h-52.6v28H1540Z" transform="translate(-18.85 -7.52)"/></svg>